<!-- Generated by IcoMoon.io -->
<svg version="1.1" xmlns="http://www.w3.org/2000/svg" width="1024" height="1024" viewBox="0 0 1024 1024">
<title></title>
<g id="icomoon-ignore">
</g>
<path d="M896 192h-64v736q0 20-7.5 37.5t-20.5 30.5-30.5 20.5-37.5 7.5h-512q-20 0-37.5-7.5t-30.5-20.5-20.5-30.5-7.5-37.5v-736h-64v-64h256v-64q0-13.5 5-25t13.75-20.25 20.25-13.75 25-5h192q13.5 0 25 5t20.25 13.75 13.75 20.25 5 25v64h256v64zM384 128h192v-64h-192v64zM768 192h-576v736q0 13 9.5 22.5t22.5 9.5h512q13 0 22.5-9.5t9.5-22.5v-736zM384 832h-64v-512h64v512zM512 832h-64v-512h64v512zM640 832h-64v-512h64v512z" fill="context-fill" fill-opacity="context-fill-opacity"></path>
</svg>
