<!-- Generated by IcoMoon.io -->
<svg version="1.1" xmlns="http://www.w3.org/2000/svg" width="1024" height="1024" viewBox="0 0 1024 1024">
<title></title>
<g id="icomoon-ignore">
</g>
<path d="M1024 167.5q0 33-12.5 64t-36.5 55l-658.5 658.5-316.5 79 79-316.5 658.5-658.5q24-24 55-36.5t64-12.5q34.5 0 65 13.25t53.25 36 36 53.25 13.25 65zM163 714q53 17.5 91.25 55.75t55.75 91.25l540.5-541-146.5-146.5zM88 936l164.5-41q-5-23-16.25-43.5t-27.25-36.5-36.5-27.25-43.5-16.25zM896 274.5q12.5-12.5 24-23.5t20.5-23.25 14.25-26.5 5.25-33.25q0-21.5-8.25-40.25t-22.5-33-33-22.5-40.25-8.25q-19 0-33.25 5.25t-26.5 14.25-23.25 20.5-23.5 24z" fill="context-fill" fill-opacity="context-fill-opacity"></path>
</svg>
