<!-- Generated by IcoMoon.io -->
<svg version="1.1" xmlns="http://www.w3.org/2000/svg" width="1024" height="1024" viewBox="0 0 1024 1024">
<title></title>
<g id="icomoon-ignore">
</g>
<path d="M96 240q-11.5-27-32.25-47.75t-47.75-32.25q27-11.5 47.75-32.25t32.25-47.75q11.5 27 32.25 47.75t47.75 32.25q-27 11.5-47.75 32.25t-32.25 47.75zM928 272q11.5 27 32.25 47.75t47.75 32.25q-27 11.5-47.75 32.25t-32.25 47.75q-11.5-27-32.25-47.75t-47.75-32.25q27-11.5 47.75-32.25t32.25-47.75zM736 320q-23.5-54.5-64.5-95.5t-95.5-64.5q54.5-23.5 95.5-64.5t64.5-95.5q23.5 54.5 64.5 95.5t95.5 64.5q-54.5 23.5-95.5 64.5t-64.5 95.5zM736 97q-28 35.5-63 63 35 28 63 63 27.5-35 63-63-35.5-27.5-63-63zM373.5 392.5q-23.5 0-44.25-9.75t-36.25-26.25-24.25-38-8.75-44.5q0-29.5 12.25-55.25t32.75-45 47.25-30.5 55.75-11.25q42 0 74.75 17.75t55.25 46.75 34.25 66 11.75 75.5q0 52.5-17 98.25t-46.75 83.25-70.25 66.25-87 48.25q-4.5 2-11.5 2-11.5 0-19.5-8.25t-8-19.75q0-18 17-26 38-18 70.25-38.75t56.5-47.5 39.5-61 19.75-78.75q0.5-5 0.75-9.75t0.25-9.75q0-26-7.5-52.5t-22.5-48-37.5-34.75-52.5-13.25q-17 0-33.5 6.75t-29.5 18.25-21 27.25-8 33.75q0 11.5 4.5 22.75t12.25 20 18.5 14.25 22.75 5.5 19-3.75 11.5-9.75 7.25-12.5 6-12.5 8.5-9.75 14.25-3.75q11.5 0 20 8.5t8.5 20q0 2.5-1 6.5-4 16-13.25 29.5t-21.75 23.25-27.75 15-31.75 5.25zM813.5 448l137 137.5-45 45-73.5-73v466.5h-704v-466.5l-73.5 73-45-45 137-137.5h277.5q-17.5 20.5-38.75 36.25t-45.25 27.75h-148v448h576v-448h-165.5q8.5-15.5 15.5-31.5t12.5-32.5h183z" fill="context-fill" fill-opacity="context-fill-opacity"></path>
</svg>
