<!-- Generated by IcoMoon.io -->
<svg version="1.1" xmlns="http://www.w3.org/2000/svg" width="1024" height="1024" viewBox="0 0 1024 1024">
<title></title>
<g id="icomoon-ignore">
</g>
<path d="M448 960h64v64h-64v-64zM480 0q39.5 0 76.25 10.25t68.75 29 58.5 45.25 45.25 58.5 29 68.75 10.25 76.25q0 42-11 76t-29 62.25-41 52.25-47 46.5-47 44.75-41 47.25-29 54-11 65v96h-64v-96q0-42 11-76t29-62.25 41-52 47-46.25 47-45 41-47.5 29-54 11-65q0-46.5-17.75-87.25t-48-71-71-48-87.25-17.75-87.25 17.75-71 48-48 71-17.75 87.25h-64q0-39.5 10.25-76.25t29-68.75 45.25-58.5 58.5-45.25 68.75-29 76.25-10.25z" fill="context-fill" fill-opacity="context-fill-opacity"></path>
</svg>
