<!-- Generated by IcoMoon.io -->
<svg version="1.1" xmlns="http://www.w3.org/2000/svg" width="1024" height="1024" viewBox="0 0 1024 1024">
<title></title>
<g id="icomoon-ignore">
</g>
<path d="M480 960q-66.5 0-127.75-17t-114.75-48.25-97.25-75-75-97.25-48.25-114.75-17-127.75 17-127.75 48.25-114.75 75-97.25 97.25-75 114.75-48.25 127.75-17 127.75 17 114.75 48.25 97.25 75 75 97.25 48.25 114.75 17 127.75-17 127.75-48.25 114.75-75 97.25-97.25 75-114.75 48.25-127.75 17zM480 64q-57.5 0-110.5 15t-99.25 42-84.25 65-65 84.25-42 99.5-15 110.25 15 110.25 42 99.5 65 84.25 84.25 65 99.25 42 110.5 15q57 0 110.25-15t99.5-42 84.25-65 65-84.25 42-99.25 15-110.5q0-57-15-110.25t-42-99.5-65-84.25-84.25-65-99.5-42-110.25-15zM448 384h64v320h-64v-320zM448 256h64v64h-64v-64z" fill="context-fill" fill-opacity="context-fill-opacity"></path>
</svg>
