<!-- Generated by IcoMoon.io -->
<svg version="1.1" xmlns="http://www.w3.org/2000/svg" width="1024" height="1024" viewBox="0 0 1024 1024">
<title></title>
<g id="icomoon-ignore">
</g>
<path d="M960 384v640h-512v-64h-384v-832h256q0-26 10.25-49.5t27.5-40.75 40.5-27.5 49.75-10.25q26 0 49.5 10.25t40.75 27.5 27.5 40.75 10.25 49.5h256v256h128zM256 192v64h384v-64h-128q0-8 0.25-16.75t0.25-17.75q0-17-1.75-33.75t-8.5-30-19.5-21.5-34.75-8.25-34.75 8.25-19.5 21.5-8.5 30-1.75 33.75q0 9 0.25 17.75t0.25 16.75h-128zM448 896v-512h320v-192h-64v128h-512v-128h-64v704h320zM896 448h-384v512h384v-512z" fill="context-fill" fill-opacity="context-fill-opacity"></path>
</svg>
