<!-- Generated by IcoMoon.io -->
<svg version="1.1" xmlns="http://www.w3.org/2000/svg" width="1024" height="1024" viewBox="0 0 1024 1024">
<title></title>
<g id="icomoon-ignore">
</g>
<path d="M442.535 256q-77.495 0-147.241 29t-124.242 83.5-83.495 124.25-28.998 147.25q0 53 13.749 102t38.748 91.75 59.996 77.75 77.745 60 91.745 38.75 101.993 13.75h447.972v-64h-447.973q-43.997 0-84.995-11.5t-76.495-32.25-64.746-50-49.997-64.75-32.248-76.5-11.499-85 11.499-85 32.248-76.5 49.997-64.75 64.746-50 76.495-32.25 84.995-11.5h410.475l-212.987 213.5 36.998 37 282.982-282.5-282.983-282.5-36.998 37 212.988 213.5h-410.475z" fill="context-fill" fill-opacity="context-fill-opacity"></path>
</svg>
