<?xml version="1.0" standalone="no"?>
<!-- Generator: Gravit.io -->
<svg xmlns="http://www.w3.org/2000/svg" xmlns:xlink="http://www.w3.org/1999/xlink" style="isolation:isolate" viewBox="0 0 16 16" width="16" height="16">
  <defs>
    <clipPath id="_clipPath_PWq0hjqqBivFrFCClKIZveliZwzGtNtQ"><rect width="16" height="16"/></clipPath>
  </defs>
  <g clip-path="url(#_clipPath_PWq0hjqqBivFrFCClKIZveliZwzGtNtQ)"><path
    d=" M 13.965 7.717 Q 13.965 7.788 13.969 7.859 Q 13.972 7.929 13.972 8 Q 13.972 8.071 13.969 8.141 Q 13.965 8.212 13.965 8.283 L 16 9.548 L 14.75 12.558 L 12.417 12.024 Q 12.228 12.228 12.024 12.417 L 12.558 14.75 L 9.548 16 L 8.283 13.965 Q 8.212 13.965 8.141 13.969 Q 8.071 13.972 8 13.972 Q 7.929 13.972 7.859 13.969 Q 7.788 13.965 7.717 13.965 L 6.452 16 L 3.442 14.75 L 3.976 12.417 Q 3.772 12.228 3.583 12.024 L 1.25 12.558 L 0 9.548 L 2.035 8.283 Q 2.035 8.212 2.031 8.141 Q 2.028 8.071 2.028 8 Q 2.028 7.929 2.031 7.859 Q 2.035 7.788 2.035 7.717 L 0 6.452 L 1.25 3.442 L 3.583 3.976 Q 3.772 3.772 3.976 3.583 L 3.442 1.25 L 6.452 0 L 7.717 2.035 Q 7.788 2.035 7.859 2.031 Q 7.929 2.028 8 2.028 Q 8.071 2.028 8.141 2.031 Q 8.212 2.035 8.283 2.035 L 9.548 0 L 12.558 1.25 L 12.024 3.583 Q 12.228 3.772 12.417 3.976 L 14.75 3.442 L 16 6.452 L 13.965 7.717 Z  M 13.045 8.739 Q 13.061 8.55 13.077 8.365 Q 13.092 8.181 13.092 7.992 Q 13.092 7.811 13.077 7.623 Q 13.061 7.434 13.045 7.253 L 14.9 6.098 L 14.224 4.464 L 12.094 4.959 Q 11.851 4.66 11.595 4.409 Q 11.34 4.157 11.041 3.906 L 11.536 1.776 L 9.902 1.1 L 8.739 2.955 Q 8.558 2.939 8.369 2.923 Q 8.181 2.908 8 2.908 Q 7.811 2.908 7.627 2.923 Q 7.442 2.939 7.253 2.955 L 6.098 1.1 L 4.464 1.776 L 4.959 3.906 Q 4.66 4.149 4.409 4.405 Q 4.157 4.66 3.906 4.959 L 1.776 4.464 L 1.1 6.098 L 2.955 7.261 Q 2.939 7.45 2.923 7.635 Q 2.908 7.819 2.908 8.008 Q 2.908 8.189 2.923 8.377 Q 2.939 8.566 2.955 8.747 L 1.1 9.902 L 1.776 11.536 L 3.906 11.041 Q 4.149 11.34 4.405 11.591 Q 4.66 11.843 4.959 12.094 L 4.464 14.224 L 6.098 14.9 L 7.261 13.045 Q 7.442 13.061 7.631 13.077 Q 7.819 13.092 8 13.092 Q 8.189 13.092 8.373 13.077 Q 8.558 13.061 8.747 13.045 L 9.902 14.9 L 11.536 14.224 L 11.041 12.094 Q 11.34 11.851 11.591 11.595 Q 11.843 11.34 12.094 11.041 L 14.224 11.536 L 14.9 9.902 L 13.045 8.739 Z  M 8 5.045 Q 8.613 5.045 9.151 5.277 Q 9.69 5.509 10.09 5.91 Q 10.491 6.31 10.723 6.849 Q 10.955 7.387 10.955 8 Q 10.955 8.613 10.723 9.151 Q 10.491 9.69 10.09 10.09 Q 9.69 10.491 9.151 10.723 Q 8.613 10.955 8 10.955 Q 7.387 10.955 6.849 10.723 Q 6.31 10.491 5.91 10.09 Q 5.509 9.69 5.277 9.151 Q 5.045 8.613 5.045 8 Q 5.045 7.387 5.277 6.849 Q 5.509 6.31 5.91 5.91 Q 6.31 5.509 6.849 5.277 Q 7.387 5.045 8 5.045 Z  M 8 10.075 Q 8.432 10.075 8.809 9.914 Q 9.187 9.752 9.47 9.47 Q 9.752 9.187 9.914 8.809 Q 10.075 8.432 10.075 8 Q 10.075 7.568 9.914 7.191 Q 9.752 6.813 9.47 6.53 Q 9.187 6.248 8.809 6.086 Q 8.432 5.925 8 5.925 Q 7.568 5.925 7.191 6.086 Q 6.813 6.248 6.53 6.53 Q 6.248 6.813 6.086 7.191 Q 5.925 7.568 5.925 8 Q 5.925 8.432 6.086 8.809 Q 6.248 9.187 6.53 9.47 Q 6.813 9.752 7.191 9.914 Q 7.568 10.075 8 10.075 Z "
    fill="context-fill"
    fill-opacity="context-fill-opacity"/></g>
</svg>
