<?xml version="1.0" standalone="no"?>
<!-- Generator: Gravit.io -->
<svg xmlns="http://www.w3.org/2000/svg" xmlns:xlink="http://www.w3.org/1999/xlink" style="isolation:isolate" viewBox="0 0 16 16" width="16" height="16">
  <defs>
    <clipPath id="_clipPath_ExrPVpb8lchlyW0TtqNoay4lPJeCv16i"><rect width="16" height="16"/></clipPath>
  </defs>
  <g clip-path="url(#_clipPath_ExrPVpb8lchlyW0TtqNoay4lPJeCv16i)"><path
    d=" M 8 0 Q 8.758 0 9.461 0.195 Q 10.164 0.391 10.777 0.75 Q 11.391 1.109 11.891 1.609 Q 12.391 2.109 12.75 2.723 Q 13.109 3.336 13.305 4.039 Q 13.5 4.742 13.5 5.5 Q 13.5 6.633 13.07 7.602 Q 12.641 8.57 11.844 9.359 Q 11.195 10 10.848 10.789 Q 10.5 11.578 10.5 12.5 L 10.5 14.5 Q 10.5 14.813 10.383 15.086 Q 10.266 15.359 10.063 15.563 Q 9.859 15.766 9.586 15.883 Q 9.313 16 9 16 L 7 16 Q 6.688 16 6.414 15.883 Q 6.141 15.766 5.938 15.563 Q 5.734 15.359 5.617 15.086 Q 5.5 14.813 5.5 14.5 L 5.5 12.5 Q 5.5 11.578 5.152 10.789 Q 4.805 10 4.156 9.359 Q 3.359 8.57 2.93 7.602 Q 2.5 6.633 2.5 5.5 Q 2.5 4.742 2.695 4.039 Q 2.891 3.336 3.25 2.723 Q 3.609 2.109 4.109 1.609 Q 4.609 1.109 5.223 0.75 Q 5.836 0.391 6.539 0.195 Q 7.242 0 8 0 Z  M 9 15 Q 9.203 15 9.352 14.852 Q 9.5 14.703 9.5 14.5 L 9.5 13 L 6.5 13 L 6.5 14.5 Q 6.5 14.703 6.648 14.852 Q 6.797 15 7 15 L 9 15 Z  M 9.523 12 Q 9.625 10.992 10.039 10.172 Q 10.453 9.352 11.156 8.641 Q 11.805 7.984 12.152 7.207 Q 12.5 6.43 12.5 5.5 Q 12.5 4.57 12.145 3.75 Q 11.789 2.93 11.18 2.32 Q 10.57 1.711 9.75 1.355 Q 8.93 1 8 1 Q 7.07 1 6.25 1.355 Q 5.43 1.711 4.82 2.32 Q 4.211 2.93 3.855 3.75 Q 3.5 4.57 3.5 5.5 Q 3.5 6.43 3.848 7.207 Q 4.195 7.984 4.844 8.641 Q 5.547 9.352 5.961 10.172 Q 6.375 10.992 6.477 12 L 9.523 12 Z "
    fill="context-fill" fill-opacity="context-fill-opacity"/></g>
</svg>
