<!-- Generated by IcoMoon.io -->
<svg version="1.1" xmlns="http://www.w3.org/2000/svg" width="1024" height="1024" viewBox="0 0 1024 1024">
<title></title>
<g id="icomoon-ignore">
</g>
<path d="M576 896q0-53 13.75-102.25t38.75-91.75 60-77.5 77.5-60 91.75-38.75 102.25-13.75v64q-44 0-85 11.5t-76.5 32.25-64.75 50-50 64.75-32.25 76.5-11.5 85h-64zM384 896q0-79.5 20.5-153.25t58-137.75 90-116.5 116.5-90 137.75-58 153.25-20.5v64q-70.5 0-136 18.25t-122.25 51.75-103.5 80.25-80.25 103.5-51.75 122.25-18.25 136h-64zM192 896q0-106 27.5-204t77.5-183.5 120-155.5 155.5-120 183.5-77.5 204-27.5v64q-97 0-186.75 25.25t-168 71-142.75 110.25-110.25 142.75-71 168-25.25 186.75h-64zM864 704q20 0 37.5 7.5t30.5 20.5 20.5 30.5 7.5 37.5-7.5 37.5-20.5 30.5-30.5 20.5-37.5 7.5-37.5-7.5-30.5-20.5-20.5-30.5-7.5-37.5 7.5-37.5 20.5-30.5 30.5-20.5 37.5-7.5z" fill="context-fill" fill-opacity="context-fill-opacity"></path>
</svg>
