<!-- Generated by IcoMoon.io -->
<svg version="1.1" xmlns="http://www.w3.org/2000/svg" width="1024" height="1024" viewBox="0 0 1024 1024">
<title></title>
<g id="icomoon-ignore">
</g>
<path d="M512 960q77 0 147.75-23.75t129-67 101.5-104 65.75-134.75l61 19q-25 83.5-74.5 152.25t-116.25 118.25-147 76.75-167.25 27.25q-68.5 0-133.5-17t-122.75-49.25-106.75-78.5-85-104.75v121.5h-64v-256h256v64h-158q29.5 58.5 73.25 105.75t97.75 80.5 115.75 51.5 127.25 18.25zM1024 128v256h-256v-64h158q-29.5-58.5-73.25-105.75t-97.75-80.5-115.75-51.5-127.25-18.25q-77 0-147.75 23.75t-129 67-101.5 104-65.75 134.75l-61-19q25-83 74.5-152t116.25-118.5 147-76.75 167.25-27.25q68.5 0 133.5 17t122.75 49.25 106.75 78.5 85 104.75v-121.5h64z" fill="context-fill" fill-opacity="context-fill-opacity"></path>
</svg>
