<!-- Generated by IcoMoon.io -->
<svg version="1.1" xmlns="http://www.w3.org/2000/svg" width="1024" height="1024" viewBox="0 0 1024 1024">
<title></title>
<g id="icomoon-ignore">
</g>
<path d="M736 576q46.5 0 87.25 17.5t71.25 48 48 71.25 17.5 87.25-17.5 87.25-48 71.25-71.25 48-87.25 17.5-87.25-17.5-71.25-48-48-71.25-17.5-87.25 17.5-87.25 48-71.25 71.25-48 87.25-17.5zM576 800q0 33 12.5 62.25t34.25 51 51 34.25 62.25 12.5q23.5 0 46-6.75t42-19.75l-221.5-221.5q-13 19.5-19.75 42t-6.75 46zM869.5 888q13-19.5 19.75-42t6.75-46q0-33-12.75-62t-34.5-50.75-50.75-34.5-62-12.75q-23.5 0-46 6.75t-42 19.75zM995 374q-16.5 16.5-32.25 30.25t-32.5 23.25-36.5 14.75-44.75 5.25q-17 0-32.5-3l-67 67.5h-91l139-139 5 1.5q11.5 3.5 23 6.25t23.5 2.75q27.5 0 52-13l-247.5-247.5q-13 24.5-13 52 0 12 2.75 23.5t6.25 23l1.5 5-246 245.5q-12-5-23-9.5t-22-7.5-22.75-4.75-25.25-1.75q-28.5 0-55.5 8.25t-50 24.25l241.5 241.5v91l-96-96.5-284 284.5-68 22.5 22.5-68 284.5-284-193-193 22.5-22.5q35-35 81-53.5t95.5-18.5q19.5 0 38.75 3.25t38.25 9.25l189.5-189.5q-3-15.5-3-32.5 0-24.5 5.25-44.25t14.75-36.75 23.25-32.75 30.25-32.25z" fill="context-fill" fill-opacity="context-fill-opacity"></path>
</svg>
