<!-- Generated by IcoMoon.io -->
<svg version="1.1" xmlns="http://www.w3.org/2000/svg" width="1024" height="1024" viewBox="0 0 1024 1024">
<title></title>
<g id="icomoon-ignore">
</g>
<path d="M708 768q25.5 1 48.25 11.25t39.5 27.75 26.5 40.5 9.75 48.5q0 26.5-10.25 49.75t-27.5 40.5-40.75 27.5-49.5 10.25q-26.5 0-49.75-10.25t-40.5-27.5-27.5-40.5-10.25-49.75q0-35.5 18.25-66t49.75-47l-133-265.5-132.5 264.5q16 8.5 28.75 20.5t21.75 27 14 31.75 5 34.75q0 26.5-10.25 49.75t-27.5 40.5-40.75 27.5-49.5 10.25q-26.5 0-49.75-10.25t-40.5-27.5-27.5-40.5-10.25-49.75q0-25.5 9.5-48.25t26-40 38.75-27.75 47.75-12l161-323-169.5-339 29-87.5 176.5 354 176.5-354 29 87.5-169.5 339zM320 960q13.5 0 25-5t20.25-13.75 13.75-20.25 5-25-5-25-13.75-20.25-20.25-13.75-25-5-25 5-20.25 13.75-13.75 20.25-5 25 5 25 13.75 20.25 20.25 13.75 25 5zM704 960q13.5 0 25-5t20.25-13.75 13.75-20.25 5-25-5-25-13.75-20.25-20.25-13.75-25-5-25 5-20.25 13.75-13.75 20.25-5 25 5 25 13.75 20.25 20.25 13.75 25 5z" fill="context-fill" fill-opacity="context-fill-opacity"></path>
</svg>
