<!-- Generated by IcoMoon.io -->
<svg version="1.1" xmlns="http://www.w3.org/2000/svg" width="1024" height="1024" viewBox="0 0 1024 1024">
<title></title>
<g id="icomoon-ignore">
</g>
<path d="M768 384v64q38 0 72.75 8.75t61.25 28 42.25 49.5 15.75 73.75q0 33-12.75 62t-34.5 50.75-50.75 34.5-62 12.75h-256q-33 0-62-12.75t-50.75-34.5-34.5-50.75-12.75-62q0-43.5 15.75-73.75t42.25-49.5 61.25-28 72.75-8.75v-64h-32q-46.5 0-87.25 17.75t-71 48-48 71-17.75 87.25 17.75 87.25 48 71 71 48 87.25 17.75h256q46.5 0 87.25-17.75t71-48 48-71 17.75-87.25-17.75-87.25-48-71-71-48-87.25-17.75h-32zM448 640v-64q38 0 72.75-8.75t61.25-28 42.25-49.5 15.75-73.75q0-33-12.75-62t-34.5-50.75-50.75-34.5-62-12.75h-256q-33 0-62 12.75t-50.75 34.5-34.5 50.75-12.75 62q0 43.5 15.75 73.75t42.25 49.5 61.25 28 72.75 8.75v64h-32q-46.5 0-87.25-17.75t-71-48-48-71-17.75-87.25 17.75-87.25 48-71 71-48 87.25-17.75h256q46.5 0 87.25 17.75t71 48 48 71 17.75 87.25-17.75 87.25-48 71-71 48-87.25 17.75h-32z" fill="context-fill" fill-opacity="context-fill-opacity"></path>
</svg>
