<?xml version="1.0" standalone="no"?>
<!-- Generator: Gravit.io -->
<svg xmlns="http://www.w3.org/2000/svg" xmlns:xlink="http://www.w3.org/1999/xlink" style="isolation:isolate" viewBox="0 0 16 16" width="16" height="16">
  <defs>
    <clipPath id="_clipPath_x2d4A8rG3aYrvskVtjhUUm5pTd9o9pRR"><rect width="16" height="16"/></clipPath>
  </defs>
  <g clip-path="url(#_clipPath_x2d4A8rG3aYrvskVtjhUUm5pTd9o9pRR)"><path
    d=" M 2 7 Q 2.211 7 2.391 7.078 Q 2.57 7.156 2.707 7.293 Q 2.844 7.43 2.922 7.609 Q 3 7.789 3 8 Q 3 8.211 2.922 8.391 Q 2.844 8.57 2.707 8.707 Q 2.57 8.844 2.391 8.922 Q 2.211 9 2 9 Q 1.789 9 1.609 8.922 Q 1.43 8.844 1.293 8.707 Q 1.156 8.57 1.078 8.391 Q 1 8.211 1 8 Q 1 7.789 1.078 7.609 Q 1.156 7.43 1.293 7.293 Q 1.43 7.156 1.609 7.078 Q 1.789 7 2 7 Z  M 8 7 Q 8.211 7 8.391 7.078 Q 8.57 7.156 8.707 7.293 Q 8.844 7.43 8.922 7.609 Q 9 7.789 9 8 Q 9 8.211 8.922 8.391 Q 8.844 8.57 8.707 8.707 Q 8.57 8.844 8.391 8.922 Q 8.211 9 8 9 Q 7.789 9 7.609 8.922 Q 7.43 8.844 7.293 8.707 Q 7.156 8.57 7.078 8.391 Q 7 8.211 7 8 Q 7 7.789 7.078 7.609 Q 7.156 7.43 7.293 7.293 Q 7.43 7.156 7.609 7.078 Q 7.789 7 8 7 Z  M 14 7 Q 14.211 7 14.391 7.078 Q 14.57 7.156 14.707 7.293 Q 14.844 7.43 14.922 7.609 Q 15 7.789 15 8 Q 15 8.211 14.922 8.391 Q 14.844 8.57 14.707 8.707 Q 14.57 8.844 14.391 8.922 Q 14.211 9 14 9 Q 13.789 9 13.609 8.922 Q 13.43 8.844 13.293 8.707 Q 13.156 8.57 13.078 8.391 Q 13 8.211 13 8 Q 13 7.789 13.078 7.609 Q 13.156 7.43 13.293 7.293 Q 13.43 7.156 13.609 7.078 Q 13.789 7 14 7 Z "
    fill="context-fill" fill-opacity="context-fill-opacity"/></g>
</svg>
