<!-- Generated by IcoMoon.io -->
<svg version="1.1" xmlns="http://www.w3.org/2000/svg" width="1024" height="1024" viewBox="0 0 1024 1024">
<title></title>
<g id="icomoon-ignore">
</g>
<path d="M960 384q13 0 24.75 5t20.5 13.75 13.75 20.5 5 24.75v448h-256v128h-512v-128h-256v-448q0-13 5-24.75t13.75-20.5 20.5-13.75 24.75-5h192v-384h512v384h192zM320 384h384v-320h-384v320zM704 704h-384v256h384v-256zM960 448h-896v384h192v-192h512v192h192v-384zM160 512q13 0 22.5 9.5t9.5 22.5-9.5 22.5-22.5 9.5-22.5-9.5-9.5-22.5 9.5-22.5 22.5-9.5z" fill="context-fill" fill-opacity="context-fill-opacity"></path>
</svg>
