<!-- Generated by IcoMoon.io -->
<svg version="1.1" xmlns="http://www.w3.org/2000/svg" width="1024" height="1024" viewBox="0 0 1024 1024">
<title></title>
<g id="icomoon-ignore">
</g>
<path d="M1024 64v832h-1024v-832h1024zM960 128h-94l94 94v-94zM960 320h-222l222 222v-222zM926 256l-128-128h-252l128 128h252zM478 128h-249l128 128h249zM64 256h225l-128-128h-97v128zM64 354v252l226 226h252zM610 832h255l-512-512h-255zM64 832h158l-158-158v158zM960 832v-222l-290-290h-249l512 512h27z" fill="context-fill" fill-opacity="context-fill-opacity"></path>
</svg>
