<!-- Generated by IcoMoon.io -->
<svg version="1.1" xmlns="http://www.w3.org/2000/svg" width="1024" height="1024" viewBox="0 0 1024 1024">
<title></title>
<g id="icomoon-ignore">
</g>
<path d="M896 192q13.5 0 25 5t20.25 13.75 13.75 20.25 5 25v704h-685.5l-82.5-83v-109h-45.5l-82.5-83v-557q0-13.5 5-25t13.75-20.25 20.25-13.75 25-5h576q13.5 0 25 5t20.25 13.75 13.75 20.25 5 25v64h128zM384 512h384v-256h-384v256zM192 704v-448q0-13.5 5-25t13.75-20.25 20.25-13.75 25-5h448v-64h-576v530.5l45.5 45.5h18.5zM704 704h-320v192h64v-128h64v128h192v-192zM896 256h-64v320h-512v-320h-64v594.5l45.5 45.5h18.5v-256h448v256h128v-640z" fill="context-fill" fill-opacity="context-fill-opacity"></path>
</svg>
