<!-- Generated by IcoMoon.io -->
<svg version="1.1" xmlns="http://www.w3.org/2000/svg" width="1024" height="1024" viewBox="0 0 1024 1024">
<title></title>
<g id="icomoon-ignore">
</g>
<path d="M1024 64v448h-64v-192h-896v512h256v64h-320v-832h1024zM960 256v-128h-896v128h896zM877.5 576h146.5v448h-640v-448h146.5l64-64h219zM960 640h-109.5l-64-64h-165l-64 64h-109.5v320h512v-320zM704 640q26.5 0 49.75 10t40.75 27.5 27.5 40.75 10 49.75-10 49.75-27.5 40.75-40.75 27.5-49.75 10-49.75-10-40.75-27.5-27.5-40.75-10-49.75 10-49.75 27.5-40.75 40.75-27.5 49.75-10zM704 832q13.5 0 25-5t20.25-13.75 13.75-20.25 5-25-5-25-13.75-20.25-20.25-13.75-25-5-25 5-20.25 13.75-13.75 20.25-5 25 5 25 13.75 20.25 20.25 13.75 25 5z" fill="context-fill" fill-opacity="context-fill-opacity"></path>
</svg>
